<svg width="216" height="480" viewBox="0 0 216 480" fill="none" xmlns="http://www.w3.org/2000/svg">
<path d="M211.524 190.969C186.259 79.4609 126.548 42.7969 120.118 28.7891C113.087 18.9063 105.962 1.32812 105.962 1.32812C105.845 1.03125 105.657 0.507812 105.438 0C104.712 9.88281 104.337 13.6953 94.993 23.6641C80.5243 34.9766 6.28988 97.2656 0.25082 223.953C-5.38199 342.109 85.6024 412.516 97.9071 421.492L99.3055 422.484V422.398C99.3836 422.992 103.212 450.523 105.899 479.695H115.54C117.802 459.075 121.192 438.593 125.696 418.344L126.477 417.836C131.981 413.889 137.229 409.597 142.188 404.984L142.751 404.477C168.907 380.312 215.93 324.422 215.47 235.313C215.372 220.448 214.053 205.617 211.524 190.969ZM104.876 354.781C104.876 354.781 104.876 189.063 110.345 189.094C114.61 189.094 120.134 402.852 120.134 402.852C112.54 401.938 104.876 367.672 104.876 354.781Z" fill="#00ED64"/>
</svg>
